<svg width="60" height="60" viewBox="0 0 60 60" fill="none" xmlns="http://www.w3.org/2000/svg">
<path d="M39.3563 47.5179L5.71875 22.7679C2.31 20.2599 3.46875 15.0378 7.71938 13.8098L43.47 3.45985C44.2273 3.16837 45.0388 3.07375 45.8374 3.18385C46.6358 3.29395 47.3981 3.60559 48.0611 4.09291C48.7239 4.58023 49.2684 5.22917 49.6491 5.98587C50.0297 6.74257 50.2358 7.58521 50.25 8.44385L48.1313 43.5419C47.88 47.7079 42.765 50.0259 39.3563 47.5179Z" fill="#E9327C"/>
<path d="M28.687 53.6284L8.87013 12.2904C8.41713 11.3448 8.2178 10.284 8.2941 9.22513C8.37039 8.16627 8.71936 7.15045 9.30251 6.28971C9.88567 5.42897 10.6804 4.75673 11.5989 4.34713C12.5175 3.93753 13.5243 3.80649 14.5083 3.96847L51.2339 10.0144C52.0794 10.1537 52.8819 10.505 53.5754 11.0395C54.2688 11.574 54.8334 12.2764 55.2228 13.089C55.612 13.9017 55.8151 14.8012 55.8149 15.7138C55.8147 16.6264 55.6115 17.526 55.222 18.3384L38.3039 53.6304C37.8496 54.5734 37.1604 55.3646 36.3119 55.9168C35.4635 56.4692 34.4889 56.7612 33.4949 56.761C32.501 56.7608 31.5264 56.4684 30.6781 55.9158C29.8299 55.363 29.141 54.5716 28.687 53.6284Z" fill="#1DACE3"/>
<path d="M50.16 9.83566L31.8525 6.82166L9.375 13.3317L18.3469 32.0536L39.3562 47.5176C39.8197 47.855 40.3296 48.1134 40.8675 48.2836L48.8475 31.6376L50.16 9.83566Z" fill="#001A49"/>
</svg>
