<svg width="60" height="60" viewBox="0 0 60 60" fill="none" xmlns="http://www.w3.org/2000/svg">
<path d="M2.42993 36.6124C2.42993 33.7874 2.97499 30.9899 4.03405 28.38C5.09312 25.7699 6.64536 23.3984 8.60224 21.4007C10.5591 19.4031 12.8822 17.8185 15.4389 16.7374C17.9958 15.6564 20.736 15.0999 23.5035 15.0999V36.6124H2.42993Z" fill="#442781"/>
<path d="M2.42993 36.6124C2.42993 39.4375 2.97499 42.2349 4.03405 44.845C5.09312 47.455 6.64536 49.8265 8.60224 51.8241C10.5591 53.8217 12.8822 55.4064 15.4389 56.4875C17.9958 57.5686 20.736 58.125 23.5035 58.125V36.6124H2.42993Z" fill="#61459C"/>
<path d="M44.5766 36.6124C44.5766 39.4375 44.032 42.2349 42.9731 44.845C41.914 47.455 40.3618 49.8265 38.4046 51.8241C36.4477 53.8217 34.1246 55.4064 31.5678 56.4875C29.0112 57.5686 26.2708 58.125 23.5034 58.125V36.6124H44.5766Z" fill="#A992DB"/>
<path d="M57.57 18.0275C57.57 26.9482 50.4856 34.18 41.747 34.18H25.9243V18.0275C25.9243 9.10675 33.0085 1.875 41.747 1.875C50.4856 1.875 57.57 9.10675 57.57 18.0275Z" fill="#FF7917"/>
</svg>
