<svg width="60" height="60" viewBox="0 0 60 60" fill="none" xmlns="http://www.w3.org/2000/svg">
<path d="M30.0001 0L60 22.5147V37.4795L30.0001 60L0 37.4795V22.5149L30.0001 0Z" fill="#A5B4FC"/>
<path fill-rule="evenodd" clip-rule="evenodd" d="M0 22.5147L30 0L60 22.5147V37.4795L30 60L0 37.4795V22.5147ZM30 50.4465L53.636 32.7033V27.2927L53.6348 27.2917L30 45.0295L6.36511 27.2917L6.36396 27.2927V32.7033L30 50.4465ZM30 36.7569L48.1222 23.1564L43.7075 19.8447L30 30.1322L16.2925 19.8447L11.8779 23.1564L30 36.7569ZM30 21.8595L38.1948 15.7094L30 9.56201L21.8052 15.7094L30 21.8595Z" fill="#4F46E5"/>
<path d="M30.0001 0L0 22.5149V37.4795L30 60L30.0001 0Z" fill="#A5B4FC" fill-opacity="0.3"/>
</svg>
