<svg width="90" height="120" viewBox="0 0 90 120" fill="none" xmlns="http://www.w3.org/2000/svg">
<path fill-rule="evenodd" clip-rule="evenodd" d="M5 2.5C5.66304 2.5 6.29893 2.76339 6.76777 3.23223C7.23661 3.70107 7.5 4.33696 7.5 5C7.5 5.66304 7.23661 6.29893 6.76777 6.76777C6.29893 7.23661 5.66304 7.5 5 7.5C4.33696 7.5 3.70107 7.23661 3.23223 6.76777C2.76339 6.29893 2.5 5.66304 2.5 5C2.5 4.33696 2.76339 3.70107 3.23223 3.23223C3.70107 2.76339 4.33696 2.5 5 2.5ZM15 2.5C15.663 2.5 16.2989 2.76339 16.7678 3.23223C17.2366 3.70107 17.5 4.33696 17.5 5C17.5 5.66304 17.2366 6.29893 16.7678 6.76777C16.2989 7.23661 15.663 7.5 15 7.5C14.337 7.5 13.7011 7.23661 13.2322 6.76777C12.7634 6.29893 12.5 5.66304 12.5 5C12.5 4.33696 12.7634 3.70107 13.2322 3.23223C13.7011 2.76339 14.337 2.5 15 2.5ZM27.5 5C27.5 4.33696 27.2366 3.70107 26.7678 3.23223C26.2989 2.76339 25.663 2.5 25 2.5C24.337 2.5 23.7011 2.76339 23.2322 3.23223C22.7634 3.70107 22.5 4.33696 22.5 5C22.5 5.66304 22.7634 6.29893 23.2322 6.76777C23.7011 7.23661 24.337 7.5 25 7.5C25.663 7.5 26.2989 7.23661 26.7678 6.76777C27.2366 6.29893 27.5 5.66304 27.5 5ZM5 12.5C5.66304 12.5 6.29893 12.7634 6.76777 13.2322C7.23661 13.7011 7.5 14.337 7.5 15C7.5 15.663 7.23661 16.2989 6.76777 16.7678C6.29893 17.2366 5.66304 17.5 5 17.5C4.33696 17.5 3.70107 17.2366 3.23223 16.7678C2.76339 16.2989 2.5 15.663 2.5 15C2.5 14.337 2.76339 13.7011 3.23223 13.2322C3.70107 12.7634 4.33696 12.5 5 12.5ZM17.5 15C17.5 14.337 17.2366 13.7011 16.7678 13.2322C16.2989 12.7634 15.663 12.5 15 12.5C14.337 12.5 13.7011 12.7634 13.2322 13.2322C12.7634 13.7011 12.5 14.337 12.5 15C12.5 15.663 12.7634 16.2989 13.2322 16.7678C13.7011 17.2366 14.337 17.5 15 17.5C15.663 17.5 16.2989 17.2366 16.7678 16.7678C17.2366 16.2989 17.5 15.663 17.5 15ZM25 12.5C25.663 12.5 26.2989 12.7634 26.7678 13.2322C27.2366 13.7011 27.5 14.337 27.5 15C27.5 15.663 27.2366 16.2989 26.7678 16.7678C26.2989 17.2366 25.663 17.5 25 17.5C24.337 17.5 23.7011 17.2366 23.2322 16.7678C22.7634 16.2989 22.5 15.663 22.5 15C22.5 14.337 22.7634 13.7011 23.2322 13.2322C23.7011 12.7634 24.337 12.5 25 12.5ZM7.5 25C7.5 24.337 7.23661 23.7011 6.76777 23.2322C6.29893 22.7634 5.66304 22.5 5 22.5C4.33696 22.5 3.70107 22.7634 3.23223 23.2322C2.76339 23.7011 2.5 24.337 2.5 25C2.5 25.663 2.76339 26.2989 3.23223 26.7678C3.70107 27.2366 4.33696 27.5 5 27.5C5.66304 27.5 6.29893 27.2366 6.76777 26.7678C7.23661 26.2989 7.5 25.663 7.5 25ZM15 22.5C15.663 22.5 16.2989 22.7634 16.7678 23.2322C17.2366 23.7011 17.5 24.337 17.5 25C17.5 25.663 17.2366 26.2989 16.7678 26.7678C16.2989 27.2366 15.663 27.5 15 27.5C14.337 27.5 13.7011 27.2366 13.2322 26.7678C12.7634 26.2989 12.5 25.663 12.5 25C12.5 24.337 12.7634 23.7011 13.2322 23.2322C13.7011 22.7634 14.337 22.5 15 22.5ZM27.5 25C27.5 24.337 27.2366 23.7011 26.7678 23.2322C26.2989 22.7634 25.663 22.5 25 22.5C24.337 22.5 23.7011 22.7634 23.2322 23.2322C22.7634 23.7011 22.5 24.337 22.5 25C22.5 25.663 22.7634 26.2989 23.2322 26.7678C23.7011 27.2366 24.337 27.5 25 27.5C25.663 27.5 26.2989 27.2366 26.7678 26.7678C27.2366 26.2989 27.5 25.663 27.5 25Z" fill="#FF3F00"/>
<path fill-rule="evenodd" clip-rule="evenodd" d="M35 2.5C35.663 2.5 36.2989 2.76339 36.7678 3.23223C37.2366 3.70107 37.5 4.33696 37.5 5C37.5 5.66304 37.2366 6.29893 36.7678 6.76777C36.2989 7.23661 35.663 7.5 35 7.5C34.337 7.5 33.7011 7.23661 33.2322 6.76777C32.7634 6.29893 32.5 5.66304 32.5 5C32.5 4.33696 32.7634 3.70107 33.2322 3.23223C33.7011 2.76339 34.337 2.5 35 2.5ZM45 2.5C45.663 2.5 46.2989 2.76339 46.7678 3.23223C47.2366 3.70107 47.5 4.33696 47.5 5C47.5 5.66304 47.2366 6.29893 46.7678 6.76777C46.2989 7.23661 45.663 7.5 45 7.5C44.337 7.5 43.7011 7.23661 43.2322 6.76777C42.7634 6.29893 42.5 5.66304 42.5 5C42.5 4.33696 42.7634 3.70107 43.2322 3.23223C43.7011 2.76339 44.337 2.5 45 2.5ZM57.5 5C57.5 4.33696 57.2366 3.70107 56.7678 3.23223C56.2989 2.76339 55.663 2.5 55 2.5C54.337 2.5 53.7011 2.76339 53.2322 3.23223C52.7634 3.70107 52.5 4.33696 52.5 5C52.5 5.66304 52.7634 6.29893 53.2322 6.76777C53.7011 7.23661 54.337 7.5 55 7.5C55.663 7.5 56.2989 7.23661 56.7678 6.76777C57.2366 6.29893 57.5 5.66304 57.5 5ZM35 12.5C35.663 12.5 36.2989 12.7634 36.7678 13.2322C37.2366 13.7011 37.5 14.337 37.5 15C37.5 15.663 37.2366 16.2989 36.7678 16.7678C36.2989 17.2366 35.663 17.5 35 17.5C34.337 17.5 33.7011 17.2366 33.2322 16.7678C32.7634 16.2989 32.5 15.663 32.5 15C32.5 14.337 32.7634 13.7011 33.2322 13.2322C33.7011 12.7634 34.337 12.5 35 12.5ZM47.5 15C47.5 14.337 47.2366 13.7011 46.7678 13.2322C46.2989 12.7634 45.663 12.5 45 12.5C44.337 12.5 43.7011 12.7634 43.2322 13.2322C42.7634 13.7011 42.5 14.337 42.5 15C42.5 15.663 42.7634 16.2989 43.2322 16.7678C43.7011 17.2366 44.337 17.5 45 17.5C45.663 17.5 46.2989 17.2366 46.7678 16.7678C47.2366 16.2989 47.5 15.663 47.5 15ZM55 12.5C55.663 12.5 56.2989 12.7634 56.7678 13.2322C57.2366 13.7011 57.5 14.337 57.5 15C57.5 15.663 57.2366 16.2989 56.7678 16.7678C56.2989 17.2366 55.663 17.5 55 17.5C54.337 17.5 53.7011 17.2366 53.2322 16.7678C52.7634 16.2989 52.5 15.663 52.5 15C52.5 14.337 52.7634 13.7011 53.2322 13.2322C53.7011 12.7634 54.337 12.5 55 12.5ZM37.5 25C37.5 24.337 37.2366 23.7011 36.7678 23.2322C36.2989 22.7634 35.663 22.5 35 22.5C34.337 22.5 33.7011 22.7634 33.2322 23.2322C32.7634 23.7011 32.5 24.337 32.5 25C32.5 25.663 32.7634 26.2989 33.2322 26.7678C33.7011 27.2366 34.337 27.5 35 27.5C35.663 27.5 36.2989 27.2366 36.7678 26.7678C37.2366 26.2989 37.5 25.663 37.5 25ZM45 22.5C45.663 22.5 46.2989 22.7634 46.7678 23.2322C47.2366 23.7011 47.5 24.337 47.5 25C47.5 25.663 47.2366 26.2989 46.7678 26.7678C46.2989 27.2366 45.663 27.5 45 27.5C44.337 27.5 43.7011 27.2366 43.2322 26.7678C42.7634 26.2989 42.5 25.663 42.5 25C42.5 24.337 42.7634 23.7011 43.2322 23.2322C43.7011 22.7634 44.337 22.5 45 22.5ZM57.5 25C57.5 24.337 57.2366 23.7011 56.7678 23.2322C56.2989 22.7634 55.663 22.5 55 22.5C54.337 22.5 53.7011 22.7634 53.2322 23.2322C52.7634 23.7011 52.5 24.337 52.5 25C52.5 25.663 52.7634 26.2989 53.2322 26.7678C53.7011 27.2366 54.337 27.5 55 27.5C55.663 27.5 56.2989 27.2366 56.7678 26.7678C57.2366 26.2989 57.5 25.663 57.5 25Z" fill="#FF3F00"/>
<path fill-rule="evenodd" clip-rule="evenodd" d="M65 2.5C65.663 2.5 66.2989 2.76339 66.7678 3.23223C67.2366 3.70107 67.5 4.33696 67.5 5C67.5 5.66304 67.2366 6.29893 66.7678 6.76777C66.2989 7.23661 65.663 7.5 65 7.5C64.337 7.5 63.7011 7.23661 63.2322 6.76777C62.7634 6.29893 62.5 5.66304 62.5 5C62.5 4.33696 62.7634 3.70107 63.2322 3.23223C63.7011 2.76339 64.337 2.5 65 2.5ZM75 2.5C75.663 2.5 76.2989 2.76339 76.7678 3.23223C77.2366 3.70107 77.5 4.33696 77.5 5C77.5 5.66304 77.2366 6.29893 76.7678 6.76777C76.2989 7.23661 75.663 7.5 75 7.5C74.337 7.5 73.7011 7.23661 73.2322 6.76777C72.7634 6.29893 72.5 5.66304 72.5 5C72.5 4.33696 72.7634 3.70107 73.2322 3.23223C73.7011 2.76339 74.337 2.5 75 2.5ZM87.5 5C87.5 4.33696 87.2366 3.70107 86.7678 3.23223C86.2989 2.76339 85.663 2.5 85 2.5C84.337 2.5 83.7011 2.76339 83.2322 3.23223C82.7634 3.70107 82.5 4.33696 82.5 5C82.5 5.66304 82.7634 6.29893 83.2322 6.76777C83.7011 7.23661 84.337 7.5 85 7.5C85.663 7.5 86.2989 7.23661 86.7678 6.76777C87.2366 6.29893 87.5 5.66304 87.5 5ZM65 12.5C65.663 12.5 66.2989 12.7634 66.7678 13.2322C67.2366 13.7011 67.5 14.337 67.5 15C67.5 15.663 67.2366 16.2989 66.7678 16.7678C66.2989 17.2366 65.663 17.5 65 17.5C64.337 17.5 63.7011 17.2366 63.2322 16.7678C62.7634 16.2989 62.5 15.663 62.5 15C62.5 14.337 62.7634 13.7011 63.2322 13.2322C63.7011 12.7634 64.337 12.5 65 12.5ZM77.5 15C77.5 14.337 77.2366 13.7011 76.7678 13.2322C76.2989 12.7634 75.663 12.5 75 12.5C74.337 12.5 73.7011 12.7634 73.2322 13.2322C72.7634 13.7011 72.5 14.337 72.5 15C72.5 15.663 72.7634 16.2989 73.2322 16.7678C73.7011 17.2366 74.337 17.5 75 17.5C75.663 17.5 76.2989 17.2366 76.7678 16.7678C77.2366 16.2989 77.5 15.663 77.5 15ZM85 12.5C85.663 12.5 86.2989 12.7634 86.7678 13.2322C87.2366 13.7011 87.5 14.337 87.5 15C87.5 15.663 87.2366 16.2989 86.7678 16.7678C86.2989 17.2366 85.663 17.5 85 17.5C84.337 17.5 83.7011 17.2366 83.2322 16.7678C82.7634 16.2989 82.5 15.663 82.5 15C82.5 14.337 82.7634 13.7011 83.2322 13.2322C83.7011 12.7634 84.337 12.5 85 12.5ZM67.5 25C67.5 24.337 67.2366 23.7011 66.7678 23.2322C66.2989 22.7634 65.663 22.5 65 22.5C64.337 22.5 63.7011 22.7634 63.2322 23.2322C62.7634 23.7011 62.5 24.337 62.5 25C62.5 25.663 62.7634 26.2989 63.2322 26.7678C63.7011 27.2366 64.337 27.5 65 27.5C65.663 27.5 66.2989 27.2366 66.7678 26.7678C67.2366 26.2989 67.5 25.663 67.5 25ZM75 22.5C75.663 22.5 76.2989 22.7634 76.7678 23.2322C77.2366 23.7011 77.5 24.337 77.5 25C77.5 25.663 77.2366 26.2989 76.7678 26.7678C76.2989 27.2366 75.663 27.5 75 27.5C74.337 27.5 73.7011 27.2366 73.2322 26.7678C72.7634 26.2989 72.5 25.663 72.5 25C72.5 24.337 72.7634 23.7011 73.2322 23.2322C73.7011 22.7634 74.337 22.5 75 22.5ZM87.5 25C87.5 24.337 87.2366 23.7011 86.7678 23.2322C86.2989 22.7634 85.663 22.5 85 22.5C84.337 22.5 83.7011 22.7634 83.2322 23.2322C82.7634 23.7011 82.5 24.337 82.5 25C82.5 25.663 82.7634 26.2989 83.2322 26.7678C83.7011 27.2366 84.337 27.5 85 27.5C85.663 27.5 86.2989 27.2366 86.7678 26.7678C87.2366 26.2989 87.5 25.663 87.5 25Z" fill="#FF3F00"/>
<path fill-rule="evenodd" clip-rule="evenodd" d="M5 32.5C5.66304 32.5 6.29893 32.7634 6.76777 33.2322C7.23661 33.7011 7.5 34.337 7.5 35C7.5 35.663 7.23661 36.2989 6.76777 36.7678C6.29893 37.2366 5.66304 37.5 5 37.5C4.33696 37.5 3.70107 37.2366 3.23223 36.7678C2.76339 36.2989 2.5 35.663 2.5 35C2.5 34.337 2.76339 33.7011 3.23223 33.2322C3.70107 32.7634 4.33696 32.5 5 32.5ZM15 32.5C15.663 32.5 16.2989 32.7634 16.7678 33.2322C17.2366 33.7011 17.5 34.337 17.5 35C17.5 35.663 17.2366 36.2989 16.7678 36.7678C16.2989 37.2366 15.663 37.5 15 37.5C14.337 37.5 13.7011 37.2366 13.2322 36.7678C12.7634 36.2989 12.5 35.663 12.5 35C12.5 34.337 12.7634 33.7011 13.2322 33.2322C13.7011 32.7634 14.337 32.5 15 32.5ZM27.5 35C27.5 34.337 27.2366 33.7011 26.7678 33.2322C26.2989 32.7634 25.663 32.5 25 32.5C24.337 32.5 23.7011 32.7634 23.2322 33.2322C22.7634 33.7011 22.5 34.337 22.5 35C22.5 35.663 22.7634 36.2989 23.2322 36.7678C23.7011 37.2366 24.337 37.5 25 37.5C25.663 37.5 26.2989 37.2366 26.7678 36.7678C27.2366 36.2989 27.5 35.663 27.5 35ZM5 42.5C5.66304 42.5 6.29893 42.7634 6.76777 43.2322C7.23661 43.7011 7.5 44.337 7.5 45C7.5 45.663 7.23661 46.2989 6.76777 46.7678C6.29893 47.2366 5.66304 47.5 5 47.5C4.33696 47.5 3.70107 47.2366 3.23223 46.7678C2.76339 46.2989 2.5 45.663 2.5 45C2.5 44.337 2.76339 43.7011 3.23223 43.2322C3.70107 42.7634 4.33696 42.5 5 42.5ZM17.5 45C17.5 44.337 17.2366 43.7011 16.7678 43.2322C16.2989 42.7634 15.663 42.5 15 42.5C14.337 42.5 13.7011 42.7634 13.2322 43.2322C12.7634 43.7011 12.5 44.337 12.5 45C12.5 45.663 12.7634 46.2989 13.2322 46.7678C13.7011 47.2366 14.337 47.5 15 47.5C15.663 47.5 16.2989 47.2366 16.7678 46.7678C17.2366 46.2989 17.5 45.663 17.5 45ZM25 42.5C25.663 42.5 26.2989 42.7634 26.7678 43.2322C27.2366 43.7011 27.5 44.337 27.5 45C27.5 45.663 27.2366 46.2989 26.7678 46.7678C26.2989 47.2366 25.663 47.5 25 47.5C24.337 47.5 23.7011 47.2366 23.2322 46.7678C22.7634 46.2989 22.5 45.663 22.5 45C22.5 44.337 22.7634 43.7011 23.2322 43.2322C23.7011 42.7634 24.337 42.5 25 42.5ZM7.5 55C7.5 54.337 7.23661 53.7011 6.76777 53.2322C6.29893 52.7634 5.66304 52.5 5 52.5C4.33696 52.5 3.70107 52.7634 3.23223 53.2322C2.76339 53.7011 2.5 54.337 2.5 55C2.5 55.663 2.76339 56.2989 3.23223 56.7678C3.70107 57.2366 4.33696 57.5 5 57.5C5.66304 57.5 6.29893 57.2366 6.76777 56.7678C7.23661 56.2989 7.5 55.663 7.5 55ZM15 52.5C15.663 52.5 16.2989 52.7634 16.7678 53.2322C17.2366 53.7011 17.5 54.337 17.5 55C17.5 55.663 17.2366 56.2989 16.7678 56.7678C16.2989 57.2366 15.663 57.5 15 57.5C14.337 57.5 13.7011 57.2366 13.2322 56.7678C12.7634 56.2989 12.5 55.663 12.5 55C12.5 54.337 12.7634 53.7011 13.2322 53.2322C13.7011 52.7634 14.337 52.5 15 52.5ZM27.5 55C27.5 54.337 27.2366 53.7011 26.7678 53.2322C26.2989 52.7634 25.663 52.5 25 52.5C24.337 52.5 23.7011 52.7634 23.2322 53.2322C22.7634 53.7011 22.5 54.337 22.5 55C22.5 55.663 22.7634 56.2989 23.2322 56.7678C23.7011 57.2366 24.337 57.5 25 57.5C25.663 57.5 26.2989 57.2366 26.7678 56.7678C27.2366 56.2989 27.5 55.663 27.5 55Z" fill="#FF3F00"/>
<path fill-rule="evenodd" clip-rule="evenodd" d="M35 32.5C35.663 32.5 36.2989 32.7634 36.7678 33.2322C37.2366 33.7011 37.5 34.337 37.5 35C37.5 35.663 37.2366 36.2989 36.7678 36.7678C36.2989 37.2366 35.663 37.5 35 37.5C34.337 37.5 33.7011 37.2366 33.2322 36.7678C32.7634 36.2989 32.5 35.663 32.5 35C32.5 34.337 32.7634 33.7011 33.2322 33.2322C33.7011 32.7634 34.337 32.5 35 32.5ZM45 32.5C45.663 32.5 46.2989 32.7634 46.7678 33.2322C47.2366 33.7011 47.5 34.337 47.5 35C47.5 35.663 47.2366 36.2989 46.7678 36.7678C46.2989 37.2366 45.663 37.5 45 37.5C44.337 37.5 43.7011 37.2366 43.2322 36.7678C42.7634 36.2989 42.5 35.663 42.5 35C42.5 34.337 42.7634 33.7011 43.2322 33.2322C43.7011 32.7634 44.337 32.5 45 32.5ZM57.5 35C57.5 34.337 57.2366 33.7011 56.7678 33.2322C56.2989 32.7634 55.663 32.5 55 32.5C54.337 32.5 53.7011 32.7634 53.2322 33.2322C52.7634 33.7011 52.5 34.337 52.5 35C52.5 35.663 52.7634 36.2989 53.2322 36.7678C53.7011 37.2366 54.337 37.5 55 37.5C55.663 37.5 56.2989 37.2366 56.7678 36.7678C57.2366 36.2989 57.5 35.663 57.5 35ZM35 42.5C35.663 42.5 36.2989 42.7634 36.7678 43.2322C37.2366 43.7011 37.5 44.337 37.5 45C37.5 45.663 37.2366 46.2989 36.7678 46.7678C36.2989 47.2366 35.663 47.5 35 47.5C34.337 47.5 33.7011 47.2366 33.2322 46.7678C32.7634 46.2989 32.5 45.663 32.5 45C32.5 44.337 32.7634 43.7011 33.2322 43.2322C33.7011 42.7634 34.337 42.5 35 42.5ZM47.5 45C47.5 44.337 47.2366 43.7011 46.7678 43.2322C46.2989 42.7634 45.663 42.5 45 42.5C44.337 42.5 43.7011 42.7634 43.2322 43.2322C42.7634 43.7011 42.5 44.337 42.5 45C42.5 45.663 42.7634 46.2989 43.2322 46.7678C43.7011 47.2366 44.337 47.5 45 47.5C45.663 47.5 46.2989 47.2366 46.7678 46.7678C47.2366 46.2989 47.5 45.663 47.5 45ZM55 42.5C55.663 42.5 56.2989 42.7634 56.7678 43.2322C57.2366 43.7011 57.5 44.337 57.5 45C57.5 45.663 57.2366 46.2989 56.7678 46.7678C56.2989 47.2366 55.663 47.5 55 47.5C54.337 47.5 53.7011 47.2366 53.2322 46.7678C52.7634 46.2989 52.5 45.663 52.5 45C52.5 44.337 52.7634 43.7011 53.2322 43.2322C53.7011 42.7634 54.337 42.5 55 42.5ZM37.5 55C37.5 54.337 37.2366 53.7011 36.7678 53.2322C36.2989 52.7634 35.663 52.5 35 52.5C34.337 52.5 33.7011 52.7634 33.2322 53.2322C32.7634 53.7011 32.5 54.337 32.5 55C32.5 55.663 32.7634 56.2989 33.2322 56.7678C33.7011 57.2366 34.337 57.5 35 57.5C35.663 57.5 36.2989 57.2366 36.7678 56.7678C37.2366 56.2989 37.5 55.663 37.5 55ZM45 52.5C45.663 52.5 46.2989 52.7634 46.7678 53.2322C47.2366 53.7011 47.5 54.337 47.5 55C47.5 55.663 47.2366 56.2989 46.7678 56.7678C46.2989 57.2366 45.663 57.5 45 57.5C44.337 57.5 43.7011 57.2366 43.2322 56.7678C42.7634 56.2989 42.5 55.663 42.5 55C42.5 54.337 42.7634 53.7011 43.2322 53.2322C43.7011 52.7634 44.337 52.5 45 52.5ZM57.5 55C57.5 54.337 57.2366 53.7011 56.7678 53.2322C56.2989 52.7634 55.663 52.5 55 52.5C54.337 52.5 53.7011 52.7634 53.2322 53.2322C52.7634 53.7011 52.5 54.337 52.5 55C52.5 55.663 52.7634 56.2989 53.2322 56.7678C53.7011 57.2366 54.337 57.5 55 57.5C55.663 57.5 56.2989 57.2366 56.7678 56.7678C57.2366 56.2989 57.5 55.663 57.5 55Z" fill="#FF3F00"/>
<path fill-rule="evenodd" clip-rule="evenodd" d="M65 32.5C65.663 32.5 66.2989 32.7634 66.7678 33.2322C67.2366 33.7011 67.5 34.337 67.5 35C67.5 35.663 67.2366 36.2989 66.7678 36.7678C66.2989 37.2366 65.663 37.5 65 37.5C64.337 37.5 63.7011 37.2366 63.2322 36.7678C62.7634 36.2989 62.5 35.663 62.5 35C62.5 34.337 62.7634 33.7011 63.2322 33.2322C63.7011 32.7634 64.337 32.5 65 32.5ZM75 32.5C75.663 32.5 76.2989 32.7634 76.7678 33.2322C77.2366 33.7011 77.5 34.337 77.5 35C77.5 35.663 77.2366 36.2989 76.7678 36.7678C76.2989 37.2366 75.663 37.5 75 37.5C74.337 37.5 73.7011 37.2366 73.2322 36.7678C72.7634 36.2989 72.5 35.663 72.5 35C72.5 34.337 72.7634 33.7011 73.2322 33.2322C73.7011 32.7634 74.337 32.5 75 32.5ZM87.5 35C87.5 34.337 87.2366 33.7011 86.7678 33.2322C86.2989 32.7634 85.663 32.5 85 32.5C84.337 32.5 83.7011 32.7634 83.2322 33.2322C82.7634 33.7011 82.5 34.337 82.5 35C82.5 35.663 82.7634 36.2989 83.2322 36.7678C83.7011 37.2366 84.337 37.5 85 37.5C85.663 37.5 86.2989 37.2366 86.7678 36.7678C87.2366 36.2989 87.5 35.663 87.5 35ZM65 42.5C65.663 42.5 66.2989 42.7634 66.7678 43.2322C67.2366 43.7011 67.5 44.337 67.5 45C67.5 45.663 67.2366 46.2989 66.7678 46.7678C66.2989 47.2366 65.663 47.5 65 47.5C64.337 47.5 63.7011 47.2366 63.2322 46.7678C62.7634 46.2989 62.5 45.663 62.5 45C62.5 44.337 62.7634 43.7011 63.2322 43.2322C63.7011 42.7634 64.337 42.5 65 42.5ZM77.5 45C77.5 44.337 77.2366 43.7011 76.7678 43.2322C76.2989 42.7634 75.663 42.5 75 42.5C74.337 42.5 73.7011 42.7634 73.2322 43.2322C72.7634 43.7011 72.5 44.337 72.5 45C72.5 45.663 72.7634 46.2989 73.2322 46.7678C73.7011 47.2366 74.337 47.5 75 47.5C75.663 47.5 76.2989 47.2366 76.7678 46.7678C77.2366 46.2989 77.5 45.663 77.5 45ZM85 42.5C85.663 42.5 86.2989 42.7634 86.7678 43.2322C87.2366 43.7011 87.5 44.337 87.5 45C87.5 45.663 87.2366 46.2989 86.7678 46.7678C86.2989 47.2366 85.663 47.5 85 47.5C84.337 47.5 83.7011 47.2366 83.2322 46.7678C82.7634 46.2989 82.5 45.663 82.5 45C82.5 44.337 82.7634 43.7011 83.2322 43.2322C83.7011 42.7634 84.337 42.5 85 42.5ZM67.5 55C67.5 54.337 67.2366 53.7011 66.7678 53.2322C66.2989 52.7634 65.663 52.5 65 52.5C64.337 52.5 63.7011 52.7634 63.2322 53.2322C62.7634 53.7011 62.5 54.337 62.5 55C62.5 55.663 62.7634 56.2989 63.2322 56.7678C63.7011 57.2366 64.337 57.5 65 57.5C65.663 57.5 66.2989 57.2366 66.7678 56.7678C67.2366 56.2989 67.5 55.663 67.5 55ZM75 52.5C75.663 52.5 76.2989 52.7634 76.7678 53.2322C77.2366 53.7011 77.5 54.337 77.5 55C77.5 55.663 77.2366 56.2989 76.7678 56.7678C76.2989 57.2366 75.663 57.5 75 57.5C74.337 57.5 73.7011 57.2366 73.2322 56.7678C72.7634 56.2989 72.5 55.663 72.5 55C72.5 54.337 72.7634 53.7011 73.2322 53.2322C73.7011 52.7634 74.337 52.5 75 52.5ZM87.5 55C87.5 54.337 87.2366 53.7011 86.7678 53.2322C86.2989 52.7634 85.663 52.5 85 52.5C84.337 52.5 83.7011 52.7634 83.2322 53.2322C82.7634 53.7011 82.5 54.337 82.5 55C82.5 55.663 82.7634 56.2989 83.2322 56.7678C83.7011 57.2366 84.337 57.5 85 57.5C85.663 57.5 86.2989 57.2366 86.7678 56.7678C87.2366 56.2989 87.5 55.663 87.5 55Z" fill="#FF3F00"/>
<path fill-rule="evenodd" clip-rule="evenodd" d="M5 62.5C5.66304 62.5 6.29893 62.7634 6.76777 63.2322C7.23661 63.7011 7.5 64.337 7.5 65C7.5 65.663 7.23661 66.2989 6.76777 66.7678C6.29893 67.2366 5.66304 67.5 5 67.5C4.33696 67.5 3.70107 67.2366 3.23223 66.7678C2.76339 66.2989 2.5 65.663 2.5 65C2.5 64.337 2.76339 63.7011 3.23223 63.2322C3.70107 62.7634 4.33696 62.5 5 62.5ZM15 62.5C15.663 62.5 16.2989 62.7634 16.7678 63.2322C17.2366 63.7011 17.5 64.337 17.5 65C17.5 65.663 17.2366 66.2989 16.7678 66.7678C16.2989 67.2366 15.663 67.5 15 67.5C14.337 67.5 13.7011 67.2366 13.2322 66.7678C12.7634 66.2989 12.5 65.663 12.5 65C12.5 64.337 12.7634 63.7011 13.2322 63.2322C13.7011 62.7634 14.337 62.5 15 62.5ZM27.5 65C27.5 64.337 27.2366 63.7011 26.7678 63.2322C26.2989 62.7634 25.663 62.5 25 62.5C24.337 62.5 23.7011 62.7634 23.2322 63.2322C22.7634 63.7011 22.5 64.337 22.5 65C22.5 65.663 22.7634 66.2989 23.2322 66.7678C23.7011 67.2366 24.337 67.5 25 67.5C25.663 67.5 26.2989 67.2366 26.7678 66.7678C27.2366 66.2989 27.5 65.663 27.5 65ZM5 72.5C5.66304 72.5 6.29893 72.7634 6.76777 73.2322C7.23661 73.7011 7.5 74.337 7.5 75C7.5 75.663 7.23661 76.2989 6.76777 76.7678C6.29893 77.2366 5.66304 77.5 5 77.5C4.33696 77.5 3.70107 77.2366 3.23223 76.7678C2.76339 76.2989 2.5 75.663 2.5 75C2.5 74.337 2.76339 73.7011 3.23223 73.2322C3.70107 72.7634 4.33696 72.5 5 72.5ZM17.5 75C17.5 74.337 17.2366 73.7011 16.7678 73.2322C16.2989 72.7634 15.663 72.5 15 72.5C14.337 72.5 13.7011 72.7634 13.2322 73.2322C12.7634 73.7011 12.5 74.337 12.5 75C12.5 75.663 12.7634 76.2989 13.2322 76.7678C13.7011 77.2366 14.337 77.5 15 77.5C15.663 77.5 16.2989 77.2366 16.7678 76.7678C17.2366 76.2989 17.5 75.663 17.5 75ZM25 72.5C25.663 72.5 26.2989 72.7634 26.7678 73.2322C27.2366 73.7011 27.5 74.337 27.5 75C27.5 75.663 27.2366 76.2989 26.7678 76.7678C26.2989 77.2366 25.663 77.5 25 77.5C24.337 77.5 23.7011 77.2366 23.2322 76.7678C22.7634 76.2989 22.5 75.663 22.5 75C22.5 74.337 22.7634 73.7011 23.2322 73.2322C23.7011 72.7634 24.337 72.5 25 72.5ZM7.5 85C7.5 84.337 7.23661 83.7011 6.76777 83.2322C6.29893 82.7634 5.66304 82.5 5 82.5C4.33696 82.5 3.70107 82.7634 3.23223 83.2322C2.76339 83.7011 2.5 84.337 2.5 85C2.5 85.663 2.76339 86.2989 3.23223 86.7678C3.70107 87.2366 4.33696 87.5 5 87.5C5.66304 87.5 6.29893 87.2366 6.76777 86.7678C7.23661 86.2989 7.5 85.663 7.5 85ZM15 82.5C15.663 82.5 16.2989 82.7634 16.7678 83.2322C17.2366 83.7011 17.5 84.337 17.5 85C17.5 85.663 17.2366 86.2989 16.7678 86.7678C16.2989 87.2366 15.663 87.5 15 87.5C14.337 87.5 13.7011 87.2366 13.2322 86.7678C12.7634 86.2989 12.5 85.663 12.5 85C12.5 84.337 12.7634 83.7011 13.2322 83.2322C13.7011 82.7634 14.337 82.5 15 82.5ZM27.5 85C27.5 84.337 27.2366 83.7011 26.7678 83.2322C26.2989 82.7634 25.663 82.5 25 82.5C24.337 82.5 23.7011 82.7634 23.2322 83.2322C22.7634 83.7011 22.5 84.337 22.5 85C22.5 85.663 22.7634 86.2989 23.2322 86.7678C23.7011 87.2366 24.337 87.5 25 87.5C25.663 87.5 26.2989 87.2366 26.7678 86.7678C27.2366 86.2989 27.5 85.663 27.5 85Z" fill="#FF3F00"/>
<path fill-rule="evenodd" clip-rule="evenodd" d="M35 62.5C35.663 62.5 36.2989 62.7634 36.7678 63.2322C37.2366 63.7011 37.5 64.337 37.5 65C37.5 65.663 37.2366 66.2989 36.7678 66.7678C36.2989 67.2366 35.663 67.5 35 67.5C34.337 67.5 33.7011 67.2366 33.2322 66.7678C32.7634 66.2989 32.5 65.663 32.5 65C32.5 64.337 32.7634 63.7011 33.2322 63.2322C33.7011 62.7634 34.337 62.5 35 62.5ZM45 62.5C45.663 62.5 46.2989 62.7634 46.7678 63.2322C47.2366 63.7011 47.5 64.337 47.5 65C47.5 65.663 47.2366 66.2989 46.7678 66.7678C46.2989 67.2366 45.663 67.5 45 67.5C44.337 67.5 43.7011 67.2366 43.2322 66.7678C42.7634 66.2989 42.5 65.663 42.5 65C42.5 64.337 42.7634 63.7011 43.2322 63.2322C43.7011 62.7634 44.337 62.5 45 62.5ZM57.5 65C57.5 64.337 57.2366 63.7011 56.7678 63.2322C56.2989 62.7634 55.663 62.5 55 62.5C54.337 62.5 53.7011 62.7634 53.2322 63.2322C52.7634 63.7011 52.5 64.337 52.5 65C52.5 65.663 52.7634 66.2989 53.2322 66.7678C53.7011 67.2366 54.337 67.5 55 67.5C55.663 67.5 56.2989 67.2366 56.7678 66.7678C57.2366 66.2989 57.5 65.663 57.5 65ZM35 72.5C35.663 72.5 36.2989 72.7634 36.7678 73.2322C37.2366 73.7011 37.5 74.337 37.5 75C37.5 75.663 37.2366 76.2989 36.7678 76.7678C36.2989 77.2366 35.663 77.5 35 77.5C34.337 77.5 33.7011 77.2366 33.2322 76.7678C32.7634 76.2989 32.5 75.663 32.5 75C32.5 74.337 32.7634 73.7011 33.2322 73.2322C33.7011 72.7634 34.337 72.5 35 72.5ZM47.5 75C47.5 74.337 47.2366 73.7011 46.7678 73.2322C46.2989 72.7634 45.663 72.5 45 72.5C44.337 72.5 43.7011 72.7634 43.2322 73.2322C42.7634 73.7011 42.5 74.337 42.5 75C42.5 75.663 42.7634 76.2989 43.2322 76.7678C43.7011 77.2366 44.337 77.5 45 77.5C45.663 77.5 46.2989 77.2366 46.7678 76.7678C47.2366 76.2989 47.5 75.663 47.5 75ZM55 72.5C55.663 72.5 56.2989 72.7634 56.7678 73.2322C57.2366 73.7011 57.5 74.337 57.5 75C57.5 75.663 57.2366 76.2989 56.7678 76.7678C56.2989 77.2366 55.663 77.5 55 77.5C54.337 77.5 53.7011 77.2366 53.2322 76.7678C52.7634 76.2989 52.5 75.663 52.5 75C52.5 74.337 52.7634 73.7011 53.2322 73.2322C53.7011 72.7634 54.337 72.5 55 72.5ZM37.5 85C37.5 84.337 37.2366 83.7011 36.7678 83.2322C36.2989 82.7634 35.663 82.5 35 82.5C34.337 82.5 33.7011 82.7634 33.2322 83.2322C32.7634 83.7011 32.5 84.337 32.5 85C32.5 85.663 32.7634 86.2989 33.2322 86.7678C33.7011 87.2366 34.337 87.5 35 87.5C35.663 87.5 36.2989 87.2366 36.7678 86.7678C37.2366 86.2989 37.5 85.663 37.5 85ZM45 82.5C45.663 82.5 46.2989 82.7634 46.7678 83.2322C47.2366 83.7011 47.5 84.337 47.5 85C47.5 85.663 47.2366 86.2989 46.7678 86.7678C46.2989 87.2366 45.663 87.5 45 87.5C44.337 87.5 43.7011 87.2366 43.2322 86.7678C42.7634 86.2989 42.5 85.663 42.5 85C42.5 84.337 42.7634 83.7011 43.2322 83.2322C43.7011 82.7634 44.337 82.5 45 82.5ZM57.5 85C57.5 84.337 57.2366 83.7011 56.7678 83.2322C56.2989 82.7634 55.663 82.5 55 82.5C54.337 82.5 53.7011 82.7634 53.2322 83.2322C52.7634 83.7011 52.5 84.337 52.5 85C52.5 85.663 52.7634 86.2989 53.2322 86.7678C53.7011 87.2366 54.337 87.5 55 87.5C55.663 87.5 56.2989 87.2366 56.7678 86.7678C57.2366 86.2989 57.5 85.663 57.5 85Z" fill="#FF3F00"/>
<path fill-rule="evenodd" clip-rule="evenodd" d="M65 62.5C65.663 62.5 66.2989 62.7634 66.7678 63.2322C67.2366 63.7011 67.5 64.337 67.5 65C67.5 65.663 67.2366 66.2989 66.7678 66.7678C66.2989 67.2366 65.663 67.5 65 67.5C64.337 67.5 63.7011 67.2366 63.2322 66.7678C62.7634 66.2989 62.5 65.663 62.5 65C62.5 64.337 62.7634 63.7011 63.2322 63.2322C63.7011 62.7634 64.337 62.5 65 62.5ZM75 62.5C75.663 62.5 76.2989 62.7634 76.7678 63.2322C77.2366 63.7011 77.5 64.337 77.5 65C77.5 65.663 77.2366 66.2989 76.7678 66.7678C76.2989 67.2366 75.663 67.5 75 67.5C74.337 67.5 73.7011 67.2366 73.2322 66.7678C72.7634 66.2989 72.5 65.663 72.5 65C72.5 64.337 72.7634 63.7011 73.2322 63.2322C73.7011 62.7634 74.337 62.5 75 62.5ZM87.5 65C87.5 64.337 87.2366 63.7011 86.7678 63.2322C86.2989 62.7634 85.663 62.5 85 62.5C84.337 62.5 83.7011 62.7634 83.2322 63.2322C82.7634 63.7011 82.5 64.337 82.5 65C82.5 65.663 82.7634 66.2989 83.2322 66.7678C83.7011 67.2366 84.337 67.5 85 67.5C85.663 67.5 86.2989 67.2366 86.7678 66.7678C87.2366 66.2989 87.5 65.663 87.5 65ZM65 72.5C65.663 72.5 66.2989 72.7634 66.7678 73.2322C67.2366 73.7011 67.5 74.337 67.5 75C67.5 75.663 67.2366 76.2989 66.7678 76.7678C66.2989 77.2366 65.663 77.5 65 77.5C64.337 77.5 63.7011 77.2366 63.2322 76.7678C62.7634 76.2989 62.5 75.663 62.5 75C62.5 74.337 62.7634 73.7011 63.2322 73.2322C63.7011 72.7634 64.337 72.5 65 72.5ZM77.5 75C77.5 74.337 77.2366 73.7011 76.7678 73.2322C76.2989 72.7634 75.663 72.5 75 72.5C74.337 72.5 73.7011 72.7634 73.2322 73.2322C72.7634 73.7011 72.5 74.337 72.5 75C72.5 75.663 72.7634 76.2989 73.2322 76.7678C73.7011 77.2366 74.337 77.5 75 77.5C75.663 77.5 76.2989 77.2366 76.7678 76.7678C77.2366 76.2989 77.5 75.663 77.5 75ZM85 72.5C85.663 72.5 86.2989 72.7634 86.7678 73.2322C87.2366 73.7011 87.5 74.337 87.5 75C87.5 75.663 87.2366 76.2989 86.7678 76.7678C86.2989 77.2366 85.663 77.5 85 77.5C84.337 77.5 83.7011 77.2366 83.2322 76.7678C82.7634 76.2989 82.5 75.663 82.5 75C82.5 74.337 82.7634 73.7011 83.2322 73.2322C83.7011 72.7634 84.337 72.5 85 72.5ZM67.5 85C67.5 84.337 67.2366 83.7011 66.7678 83.2322C66.2989 82.7634 65.663 82.5 65 82.5C64.337 82.5 63.7011 82.7634 63.2322 83.2322C62.7634 83.7011 62.5 84.337 62.5 85C62.5 85.663 62.7634 86.2989 63.2322 86.7678C63.7011 87.2366 64.337 87.5 65 87.5C65.663 87.5 66.2989 87.2366 66.7678 86.7678C67.2366 86.2989 67.5 85.663 67.5 85ZM75 82.5C75.663 82.5 76.2989 82.7634 76.7678 83.2322C77.2366 83.7011 77.5 84.337 77.5 85C77.5 85.663 77.2366 86.2989 76.7678 86.7678C76.2989 87.2366 75.663 87.5 75 87.5C74.337 87.5 73.7011 87.2366 73.2322 86.7678C72.7634 86.2989 72.5 85.663 72.5 85C72.5 84.337 72.7634 83.7011 73.2322 83.2322C73.7011 82.7634 74.337 82.5 75 82.5ZM87.5 85C87.5 84.337 87.2366 83.7011 86.7678 83.2322C86.2989 82.7634 85.663 82.5 85 82.5C84.337 82.5 83.7011 82.7634 83.2322 83.2322C82.7634 83.7011 82.5 84.337 82.5 85C82.5 85.663 82.7634 86.2989 83.2322 86.7678C83.7011 87.2366 84.337 87.5 85 87.5C85.663 87.5 86.2989 87.2366 86.7678 86.7678C87.2366 86.2989 87.5 85.663 87.5 85Z" fill="#FF3F00"/>
<path fill-rule="evenodd" clip-rule="evenodd" d="M5 92.5C5.66304 92.5 6.29893 92.7634 6.76777 93.2322C7.23661 93.7011 7.5 94.337 7.5 95C7.5 95.663 7.23661 96.2989 6.76777 96.7678C6.29893 97.2366 5.66304 97.5 5 97.5C4.33696 97.5 3.70107 97.2366 3.23223 96.7678C2.76339 96.2989 2.5 95.663 2.5 95C2.5 94.337 2.76339 93.7011 3.23223 93.2322C3.70107 92.7634 4.33696 92.5 5 92.5ZM15 92.5C15.663 92.5 16.2989 92.7634 16.7678 93.2322C17.2366 93.7011 17.5 94.337 17.5 95C17.5 95.663 17.2366 96.2989 16.7678 96.7678C16.2989 97.2366 15.663 97.5 15 97.5C14.337 97.5 13.7011 97.2366 13.2322 96.7678C12.7634 96.2989 12.5 95.663 12.5 95C12.5 94.337 12.7634 93.7011 13.2322 93.2322C13.7011 92.7634 14.337 92.5 15 92.5ZM27.5 95C27.5 94.337 27.2366 93.7011 26.7678 93.2322C26.2989 92.7634 25.663 92.5 25 92.5C24.337 92.5 23.7011 92.7634 23.2322 93.2322C22.7634 93.7011 22.5 94.337 22.5 95C22.5 95.663 22.7634 96.2989 23.2322 96.7678C23.7011 97.2366 24.337 97.5 25 97.5C25.663 97.5 26.2989 97.2366 26.7678 96.7678C27.2366 96.2989 27.5 95.663 27.5 95ZM5 102.5C5.66304 102.5 6.29893 102.763 6.76777 103.232C7.23661 103.701 7.5 104.337 7.5 105C7.5 105.663 7.23661 106.299 6.76777 106.768C6.29893 107.237 5.66304 107.5 5 107.5C4.33696 107.5 3.70107 107.237 3.23223 106.768C2.76339 106.299 2.5 105.663 2.5 105C2.5 104.337 2.76339 103.701 3.23223 103.232C3.70107 102.763 4.33696 102.5 5 102.5ZM17.5 105C17.5 104.337 17.2366 103.701 16.7678 103.232C16.2989 102.763 15.663 102.5 15 102.5C14.337 102.5 13.7011 102.763 13.2322 103.232C12.7634 103.701 12.5 104.337 12.5 105C12.5 105.663 12.7634 106.299 13.2322 106.768C13.7011 107.237 14.337 107.5 15 107.5C15.663 107.5 16.2989 107.237 16.7678 106.768C17.2366 106.299 17.5 105.663 17.5 105ZM25 102.5C25.663 102.5 26.2989 102.763 26.7678 103.232C27.2366 103.701 27.5 104.337 27.5 105C27.5 105.663 27.2366 106.299 26.7678 106.768C26.2989 107.237 25.663 107.5 25 107.5C24.337 107.5 23.7011 107.237 23.2322 106.768C22.7634 106.299 22.5 105.663 22.5 105C22.5 104.337 22.7634 103.701 23.2322 103.232C23.7011 102.763 24.337 102.5 25 102.5ZM7.5 115C7.5 114.337 7.23661 113.701 6.76777 113.232C6.29893 112.763 5.66304 112.5 5 112.5C4.33696 112.5 3.70107 112.763 3.23223 113.232C2.76339 113.701 2.5 114.337 2.5 115C2.5 115.663 2.76339 116.299 3.23223 116.768C3.70107 117.237 4.33696 117.5 5 117.5C5.66304 117.5 6.29893 117.237 6.76777 116.768C7.23661 116.299 7.5 115.663 7.5 115ZM15 112.5C15.663 112.5 16.2989 112.763 16.7678 113.232C17.2366 113.701 17.5 114.337 17.5 115C17.5 115.663 17.2366 116.299 16.7678 116.768C16.2989 117.237 15.663 117.5 15 117.5C14.337 117.5 13.7011 117.237 13.2322 116.768C12.7634 116.299 12.5 115.663 12.5 115C12.5 114.337 12.7634 113.701 13.2322 113.232C13.7011 112.763 14.337 112.5 15 112.5ZM27.5 115C27.5 114.337 27.2366 113.701 26.7678 113.232C26.2989 112.763 25.663 112.5 25 112.5C24.337 112.5 23.7011 112.763 23.2322 113.232C22.7634 113.701 22.5 114.337 22.5 115C22.5 115.663 22.7634 116.299 23.2322 116.768C23.7011 117.237 24.337 117.5 25 117.5C25.663 117.5 26.2989 117.237 26.7678 116.768C27.2366 116.299 27.5 115.663 27.5 115Z" fill="#FF3F00"/>
<path fill-rule="evenodd" clip-rule="evenodd" d="M35 92.5C35.663 92.5 36.2989 92.7634 36.7678 93.2322C37.2366 93.7011 37.5 94.337 37.5 95C37.5 95.663 37.2366 96.2989 36.7678 96.7678C36.2989 97.2366 35.663 97.5 35 97.5C34.337 97.5 33.7011 97.2366 33.2322 96.7678C32.7634 96.2989 32.5 95.663 32.5 95C32.5 94.337 32.7634 93.7011 33.2322 93.2322C33.7011 92.7634 34.337 92.5 35 92.5ZM45 92.5C45.663 92.5 46.2989 92.7634 46.7678 93.2322C47.2366 93.7011 47.5 94.337 47.5 95C47.5 95.663 47.2366 96.2989 46.7678 96.7678C46.2989 97.2366 45.663 97.5 45 97.5C44.337 97.5 43.7011 97.2366 43.2322 96.7678C42.7634 96.2989 42.5 95.663 42.5 95C42.5 94.337 42.7634 93.7011 43.2322 93.2322C43.7011 92.7634 44.337 92.5 45 92.5ZM57.5 95C57.5 94.337 57.2366 93.7011 56.7678 93.2322C56.2989 92.7634 55.663 92.5 55 92.5C54.337 92.5 53.7011 92.7634 53.2322 93.2322C52.7634 93.7011 52.5 94.337 52.5 95C52.5 95.663 52.7634 96.2989 53.2322 96.7678C53.7011 97.2366 54.337 97.5 55 97.5C55.663 97.5 56.2989 97.2366 56.7678 96.7678C57.2366 96.2989 57.5 95.663 57.5 95ZM35 102.5C35.663 102.5 36.2989 102.763 36.7678 103.232C37.2366 103.701 37.5 104.337 37.5 105C37.5 105.663 37.2366 106.299 36.7678 106.768C36.2989 107.237 35.663 107.5 35 107.5C34.337 107.5 33.7011 107.237 33.2322 106.768C32.7634 106.299 32.5 105.663 32.5 105C32.5 104.337 32.7634 103.701 33.2322 103.232C33.7011 102.763 34.337 102.5 35 102.5ZM47.5 105C47.5 104.337 47.2366 103.701 46.7678 103.232C46.2989 102.763 45.663 102.5 45 102.5C44.337 102.5 43.7011 102.763 43.2322 103.232C42.7634 103.701 42.5 104.337 42.5 105C42.5 105.663 42.7634 106.299 43.2322 106.768C43.7011 107.237 44.337 107.5 45 107.5C45.663 107.5 46.2989 107.237 46.7678 106.768C47.2366 106.299 47.5 105.663 47.5 105ZM55 102.5C55.663 102.5 56.2989 102.763 56.7678 103.232C57.2366 103.701 57.5 104.337 57.5 105C57.5 105.663 57.2366 106.299 56.7678 106.768C56.2989 107.237 55.663 107.5 55 107.5C54.337 107.5 53.7011 107.237 53.2322 106.768C52.7634 106.299 52.5 105.663 52.5 105C52.5 104.337 52.7634 103.701 53.2322 103.232C53.7011 102.763 54.337 102.5 55 102.5ZM37.5 115C37.5 114.337 37.2366 113.701 36.7678 113.232C36.2989 112.763 35.663 112.5 35 112.5C34.337 112.5 33.7011 112.763 33.2322 113.232C32.7634 113.701 32.5 114.337 32.5 115C32.5 115.663 32.7634 116.299 33.2322 116.768C33.7011 117.237 34.337 117.5 35 117.5C35.663 117.5 36.2989 117.237 36.7678 116.768C37.2366 116.299 37.5 115.663 37.5 115ZM45 112.5C45.663 112.5 46.2989 112.763 46.7678 113.232C47.2366 113.701 47.5 114.337 47.5 115C47.5 115.663 47.2366 116.299 46.7678 116.768C46.2989 117.237 45.663 117.5 45 117.5C44.337 117.5 43.7011 117.237 43.2322 116.768C42.7634 116.299 42.5 115.663 42.5 115C42.5 114.337 42.7634 113.701 43.2322 113.232C43.7011 112.763 44.337 112.5 45 112.5ZM57.5 115C57.5 114.337 57.2366 113.701 56.7678 113.232C56.2989 112.763 55.663 112.5 55 112.5C54.337 112.5 53.7011 112.763 53.2322 113.232C52.7634 113.701 52.5 114.337 52.5 115C52.5 115.663 52.7634 116.299 53.2322 116.768C53.7011 117.237 54.337 117.5 55 117.5C55.663 117.5 56.2989 117.237 56.7678 116.768C57.2366 116.299 57.5 115.663 57.5 115Z" fill="#FF3F00"/>
<path fill-rule="evenodd" clip-rule="evenodd" d="M65 92.5C65.663 92.5 66.2989 92.7634 66.7678 93.2322C67.2366 93.7011 67.5 94.337 67.5 95C67.5 95.663 67.2366 96.2989 66.7678 96.7678C66.2989 97.2366 65.663 97.5 65 97.5C64.337 97.5 63.7011 97.2366 63.2322 96.7678C62.7634 96.2989 62.5 95.663 62.5 95C62.5 94.337 62.7634 93.7011 63.2322 93.2322C63.7011 92.7634 64.337 92.5 65 92.5ZM75 92.5C75.663 92.5 76.2989 92.7634 76.7678 93.2322C77.2366 93.7011 77.5 94.337 77.5 95C77.5 95.663 77.2366 96.2989 76.7678 96.7678C76.2989 97.2366 75.663 97.5 75 97.5C74.337 97.5 73.7011 97.2366 73.2322 96.7678C72.7634 96.2989 72.5 95.663 72.5 95C72.5 94.337 72.7634 93.7011 73.2322 93.2322C73.7011 92.7634 74.337 92.5 75 92.5ZM87.5 95C87.5 94.337 87.2366 93.7011 86.7678 93.2322C86.2989 92.7634 85.663 92.5 85 92.5C84.337 92.5 83.7011 92.7634 83.2322 93.2322C82.7634 93.7011 82.5 94.337 82.5 95C82.5 95.663 82.7634 96.2989 83.2322 96.7678C83.7011 97.2366 84.337 97.5 85 97.5C85.663 97.5 86.2989 97.2366 86.7678 96.7678C87.2366 96.2989 87.5 95.663 87.5 95ZM65 102.5C65.663 102.5 66.2989 102.763 66.7678 103.232C67.2366 103.701 67.5 104.337 67.5 105C67.5 105.663 67.2366 106.299 66.7678 106.768C66.2989 107.237 65.663 107.5 65 107.5C64.337 107.5 63.7011 107.237 63.2322 106.768C62.7634 106.299 62.5 105.663 62.5 105C62.5 104.337 62.7634 103.701 63.2322 103.232C63.7011 102.763 64.337 102.5 65 102.5ZM77.5 105C77.5 104.337 77.2366 103.701 76.7678 103.232C76.2989 102.763 75.663 102.5 75 102.5C74.337 102.5 73.7011 102.763 73.2322 103.232C72.7634 103.701 72.5 104.337 72.5 105C72.5 105.663 72.7634 106.299 73.2322 106.768C73.7011 107.237 74.337 107.5 75 107.5C75.663 107.5 76.2989 107.237 76.7678 106.768C77.2366 106.299 77.5 105.663 77.5 105ZM85 102.5C85.663 102.5 86.2989 102.763 86.7678 103.232C87.2366 103.701 87.5 104.337 87.5 105C87.5 105.663 87.2366 106.299 86.7678 106.768C86.2989 107.237 85.663 107.5 85 107.5C84.337 107.5 83.7011 107.237 83.2322 106.768C82.7634 106.299 82.5 105.663 82.5 105C82.5 104.337 82.7634 103.701 83.2322 103.232C83.7011 102.763 84.337 102.5 85 102.5ZM67.5 115C67.5 114.337 67.2366 113.701 66.7678 113.232C66.2989 112.763 65.663 112.5 65 112.5C64.337 112.5 63.7011 112.763 63.2322 113.232C62.7634 113.701 62.5 114.337 62.5 115C62.5 115.663 62.7634 116.299 63.2322 116.768C63.7011 117.237 64.337 117.5 65 117.5C65.663 117.5 66.2989 117.237 66.7678 116.768C67.2366 116.299 67.5 115.663 67.5 115ZM75 112.5C75.663 112.5 76.2989 112.763 76.7678 113.232C77.2366 113.701 77.5 114.337 77.5 115C77.5 115.663 77.2366 116.299 76.7678 116.768C76.2989 117.237 75.663 117.5 75 117.5C74.337 117.5 73.7011 117.237 73.2322 116.768C72.7634 116.299 72.5 115.663 72.5 115C72.5 114.337 72.7634 113.701 73.2322 113.232C73.7011 112.763 74.337 112.5 75 112.5ZM87.5 115C87.5 114.337 87.2366 113.701 86.7678 113.232C86.2989 112.763 85.663 112.5 85 112.5C84.337 112.5 83.7011 112.763 83.2322 113.232C82.7634 113.701 82.5 114.337 82.5 115C82.5 115.663 82.7634 116.299 83.2322 116.768C83.7011 117.237 84.337 117.5 85 117.5C85.663 117.5 86.2989 117.237 86.7678 116.768C87.2366 116.299 87.5 115.663 87.5 115Z" fill="#FF3F00"/>
</svg>
