<svg width="50" height="50" viewBox="0 0 50 50" fill="none" xmlns="http://www.w3.org/2000/svg">
<path d="M25 2.56412C22.0537 2.56412 19.1361 3.1445 16.4141 4.27194C13.692 5.3995 11.2188 7.05207 9.13537 9.1354C7.05204 11.2189 5.39947 13.6921 4.27191 16.4141C3.14447 19.1362 2.56409 22.0537 2.56409 25C2.56409 27.9463 3.14447 30.8639 4.27191 33.5859C5.39947 36.308 7.05204 38.7812 9.13537 40.8646C11.2188 42.948 13.692 44.6005 16.4141 45.7281C19.1361 46.8555 22.0537 47.4359 25 47.4359V36.218C23.5268 36.218 22.0681 35.9278 20.707 35.364C19.346 34.8003 18.1093 33.974 17.0677 32.9323C16.026 31.8907 15.1997 30.654 14.636 29.293C14.0722 27.9319 13.782 26.4732 13.782 25C13.782 23.5268 14.0722 22.0681 14.636 20.7071C15.1997 19.346 16.026 18.1094 17.0677 17.0677C18.1093 16.026 19.346 15.1998 20.707 14.636C22.0681 14.0722 23.5268 13.7821 25 13.7821V2.56412Z" fill="#783F8E"/>
<path d="M25.0003 32.4787C29.1307 32.4787 32.4789 29.1305 32.4789 25.0001C32.4789 20.8697 29.1307 17.5215 25.0003 17.5215C20.8699 17.5215 17.5217 20.8697 17.5217 25.0001C17.5217 29.1305 20.8699 32.4787 25.0003 32.4787Z" fill="#783F8E"/>
<path d="M2.56409 25C2.56409 27.9463 3.14447 30.8638 4.27191 33.5859C5.39947 36.308 7.05204 38.7812 9.13537 40.8646C11.2188 42.9479 13.692 44.6005 16.4141 45.7281C19.1361 46.8555 22.0537 47.4359 25 47.4359C27.9463 47.4359 30.8638 46.8555 33.5859 45.7281C36.3079 44.6005 38.7811 42.9479 40.8646 40.8646C42.9479 38.7812 44.6005 36.308 45.7281 33.5859C46.8555 30.8638 47.4359 27.9463 47.4359 25H36.2179C36.2179 26.4732 35.9278 27.9319 35.364 29.2929C34.8002 30.654 33.974 31.8906 32.9323 32.9323C31.8906 33.974 30.654 34.8003 29.2929 35.364C27.9319 35.9278 26.4732 36.2179 25 36.2179C23.5268 36.2179 22.0681 35.9278 20.707 35.364C19.346 34.8003 18.1093 33.974 17.0677 32.9323C16.026 31.8906 15.1997 30.654 14.636 29.2929C14.0722 27.9319 13.782 26.4732 13.782 25H2.56409Z" fill="#4F1271"/>
<path d="M32.4784 24.9999C32.4784 23.0164 31.6905 21.1142 30.288 19.7117C28.8855 18.3091 26.9833 17.5211 24.9998 17.5211C23.0164 17.5211 21.1142 18.3091 19.7116 19.7117C18.3091 21.1142 17.5211 23.0164 17.5211 24.9999H24.9998H32.4784Z" fill="#4F1271"/>
</svg>
